<?xml version="1.0" encoding="UTF-8" standalone="no"?>
<!-- Created with Inkscape (http://www.inkscape.org/) -->

<svg
   width="55.0mm"
   height="70.0mm"
   viewBox="0 0 55.0 70.0"
   version="1.1"
   id="svg5"
   sodipodi:docname="christmas-tree.svg"
   inkscape:version="1.1.1 (3bf5ae0d25, 2021-09-20, custom)"
   xmlns:inkscape="http://www.inkscape.org/namespaces/inkscape"
   xmlns:sodipodi="http://sodipodi.sourceforge.net/DTD/sodipodi-0.dtd"
   xmlns="http://www.w3.org/2000/svg"
   xmlns:svg="http://www.w3.org/2000/svg">
  <sodipodi:namedview
     id="namedview7"
     pagecolor="#a2a2a2"
     bordercolor="#666666"
     borderopacity="1.0"
     inkscape:pageshadow="2"
     inkscape:pageopacity="0.24313725"
     inkscape:pagecheckerboard="0"
     inkscape:document-units="mm"
     showgrid="false"
     inkscape:zoom="2.4223127"
     inkscape:cx="-29.72366"
     inkscape:cy="142.8387"
     inkscape:window-width="1916"
     inkscape:window-height="1030"
     inkscape:window-x="1920"
     inkscape:window-y="48"
     inkscape:window-maximized="1"
     inkscape:current-layer="g19" />
  <defs
     id="defs2" />
  <g
     inkscape:label="[fixed] BG"
     inkscape:groupmode="layer"
     id="g17"
     style="display:inline"
     sodipodi:insensitive="true">
    <rect
       x="0"
       y="0"
       width="55"
       height="70"
       style="fill:#ffffff;fill-opacity:1;stroke:none"
       id="rect15" />
  </g>
  <g
     inkscape:label="F.SilkS"
     inkscape:groupmode="layer"
     id="g21"
     style="display:inline;opacity:0.431484"
     sodipodi:insensitive="true">
    <path
       style="fill:#ff0000;stroke-width:0.135573"
       d="m 22.256912,69.525844 c -0.628088,-0.254589 -0.669583,-0.443136 -0.740946,-3.366797 l -0.06777,-2.77713 -1.355733,0.02035 c -1.418017,0.02128 -2.329414,-0.15238 -3.231512,-0.615734 -0.517639,-0.265879 -0.523601,-0.265873 -1.287946,0.0015 -1.048073,0.366778 -3.053479,0.384058 -4.089444,0.03525 C 7.4635486,61.469757 5.518177,57.154813 7.2616001,53.458802 7.4739364,53.008653 8.6651855,51.09835 9.9088192,49.213684 L 12.169969,45.78702 11.832159,45.344127 C 11.64636,45.100559 11.324144,44.537783 11.116121,44.093538 10.77408,43.363086 10.737896,43.14315 10.737896,41.794511 c 0,-1.227011 0.05016,-1.599427 0.283046,-2.101386 0.155676,-0.335545 1.336834,-2.211918 2.624799,-4.169721 l 2.341753,-3.559643 -0.483647,-0.53534 c -1.350279,-1.494598 -1.605341,-3.633488 -0.639228,-5.360409 0.208577,-0.372827 1.885089,-2.958276 3.725583,-5.745443 2.82975,-4.285247 3.334104,-5.123367 3.266986,-5.428954 -0.04366,-0.198757 0.01368,-1.151769 0.127409,-2.117806 0.30558,-2.595654 0.388301,-2.302981 -1.112599,-3.9364019 C 20.144987,8.0482053 19.476061,7.269402 19.385497,7.1087344 19.111734,6.6230579 19.18286,6.1063492 19.584053,5.6662748 c 0.33751,-0.3702205 0.57305,-0.4500084 2.486518,-0.842292 l 2.113692,-0.4333339 1.072279,-1.8848445 c 1.091469,-1.91857538 1.417129,-2.26449775 2.131851,-2.26449775 0.564807,0 1.000755,0.49883868 2.052289,2.34836165 l 1.019821,1.7937383 1.933571,0.3906086 c 1.063465,0.2148346 2.106148,0.4765695 2.317078,0.5816332 0.455993,0.2271301 0.808922,0.9830116 0.686578,1.4704698 -0.04779,0.1903883 -0.740999,1.0592378 -1.540476,1.9307774 l -1.4536,1.5846184 0.235855,2.096491 c 0.140979,1.253147 0.190047,2.216974 0.121979,2.396007 -0.09585,0.252124 0.470426,1.187841 3.578838,5.913611 2.030992,3.087752 3.770239,5.872856 3.864994,6.189118 0.439649,1.46742 0.05729,3.265682 -0.933773,4.391587 -0.295774,0.336019 -0.53777,0.642437 -0.53777,0.680929 0,0.0385 1.062456,1.689467 2.361016,3.668827 1.298561,1.979362 2.488216,3.938806 2.643679,4.354318 0.342358,0.915035 0.376591,2.413396 0.07811,3.41851 -0.112507,0.378848 -0.448051,1.05345 -0.745652,1.499115 -0.297604,0.445663 -0.541098,0.844226 -0.541098,0.885692 0,0.04148 1.077812,1.711494 2.395136,3.711169 1.317325,1.999677 2.505491,3.885238 2.640366,4.190134 1.371227,3.099733 -0.2324,7.145784 -3.434987,8.666686 -1.449243,0.688243 -2.81525,0.863037 -4.244194,0.543086 -1.408014,-0.315268 -1.606279,-0.309513 -2.57589,0.07477 -0.698113,0.276671 -1.048884,0.322855 -2.474084,0.325741 l -1.660644,0.0035 -1.29e-4,2.603405 c -8.5e-5,1.729428 -0.05451,2.722743 -0.162098,2.958886 -0.328222,0.720372 -0.500841,0.742599 -5.694842,0.73327 -2.63213,-0.0047 -4.909824,-0.0589 -5.061544,-0.120402 z m 8.20689,-4.256087 v -1.673625 l -0.779547,0.279611 c -1.097704,0.393729 -3.555946,0.391659 -4.676116,-0.0039 -0.428111,-0.15119 -0.809412,-0.243865 -0.847333,-0.205944 -0.03792,0.03792 -0.06894,0.790874 -0.06894,1.67323 v 1.604284 h 3.18597 3.185972 z m -1.084587,-4.179638 c 0.41011,-0.190495 0.982823,-0.537647 1.272694,-0.771451 0.639778,-0.516027 1.088318,-0.538553 1.95713,-0.09829 1.48816,0.754107 3.071668,0.707853 4.587667,-0.134003 0.459509,-0.255172 0.955452,-0.463949 1.102096,-0.463949 0.146646,0 0.624798,0.167746 1.062559,0.372768 0.654272,0.306421 0.976898,0.371431 1.812729,0.36527 1.699377,-0.01252 3.017044,-0.834081 3.758121,-2.343151 0.311866,-0.635065 0.37632,-0.942781 0.373719,-1.784218 -0.0039,-1.251479 0.06636,-1.114986 -2.824445,-5.490717 -1.901984,-2.878996 -2.286363,-3.386433 -2.55281,-3.370083 -0.172524,0.01057 -0.710335,0.06375 -1.19514,0.118144 -0.645619,0.07243 -1.113436,0.03946 -1.748463,-0.123223 -0.837806,-0.214636 -0.89258,-0.212504 -1.626643,0.06328 -1.077148,0.404699 -2.446905,0.482055 -3.56154,0.201138 -0.871547,-0.219655 -0.922452,-0.218335 -1.423518,0.03687 -1.833918,0.934114 -4.221589,0.934114 -6.055509,0 -0.501066,-0.25522 -0.55197,-0.256541 -1.423517,-0.03687 -1.114359,0.280848 -2.49061,0.204157 -3.546677,-0.19764 -0.725884,-0.276173 -0.771547,-0.277612 -1.799636,-0.0567 -0.898091,0.192992 -1.208611,0.202773 -2.089481,0.06583 -0.569042,-0.08847 -1.048773,-0.144931 -1.066065,-0.125474 -0.01729,0.01946 -1.099068,1.664078 -2.403944,3.654717 -2.5518843,3.892996 -2.7751554,4.378644 -2.6354291,5.732466 0.1437761,1.393065 1.1374351,2.740889 2.4693651,3.349514 1.003465,0.458534 2.455937,0.430909 3.434365,-0.06532 0.936998,-0.475213 1.229595,-0.462489 2.237685,0.09733 1.511174,0.839179 3.089498,0.893183 4.545201,0.155522 0.920057,-0.466227 1.344075,-0.444739 2.066527,0.104721 1.228542,0.934377 1.992461,1.185267 3.44272,1.130678 0.816446,-0.03073 1.268931,-0.126452 1.830239,-0.387178 z m -2.921546,-3.413338 c -1.274884,-0.578451 -1.66978,-2.2913 -0.77376,-3.356159 1.191083,-1.41552 3.428863,-0.781303 3.778883,1.070986 0.120453,0.63742 -0.275873,1.580983 -0.847047,2.01664 -0.55922,0.426536 -1.540683,0.54866 -2.158076,0.268533 z M 16.362804,54.301173 c -1.041769,-0.709021 -1.333864,-1.752079 -0.786922,-2.810043 0.839091,-1.623071 3.194434,-1.505596 3.842619,0.191653 0.551809,1.444894 -0.444389,2.923431 -1.969733,2.923431 -0.438208,0 -0.77801,-0.09545 -1.085964,-0.305041 z m 19.824654,0.08726 c -1.260216,-0.642909 -1.495334,-2.598558 -0.421086,-3.502478 0.95075,-0.800005 2.184393,-0.728517 2.999599,0.173819 0.649543,0.718964 0.762706,1.47422 0.345412,2.305255 -0.170403,0.339359 -0.475068,0.736972 -0.67703,0.883587 -0.502795,0.365005 -1.663864,0.437253 -2.246895,0.139817 z M 28.80389,45.390498 c 0.317376,-0.144059 0.780694,-0.417256 1.029596,-0.607102 0.575717,-0.439121 1.075105,-0.436882 2.04944,0.0092 1.048074,0.479824 1.966082,0.417429 3.21804,-0.218723 l 0.908899,-0.461834 0.751656,0.311544 c 1.472735,0.610413 2.530974,0.502123 3.481057,-0.35622 0.763549,-0.689821 1.067085,-1.348512 1.067085,-2.31564 0,-0.784322 -0.02617,-0.839645 -1.397785,-2.95412 -0.768781,-1.185157 -1.959517,-2.993688 -2.646076,-4.018962 L 36.017513,32.91451 35.308149,32.90491 C 34.918,32.89971 34.484653,32.85054 34.34516,32.795719 c -0.146414,-0.05754 -0.547583,0.002 -0.949012,0.140674 -0.786278,0.27176 -1.938194,0.316694 -2.69943,0.105293 -0.439921,-0.122166 -0.635731,-0.09318 -1.378854,0.204116 -1.205391,0.482231 -2.776905,0.483778 -3.93806,0.0039 -0.740788,-0.306169 -0.876207,-0.322297 -1.516216,-0.180578 l -0.702779,0.155617 0.431632,0.286571 c 0.477218,0.316835 1.04171,1.308169 1.04171,1.829397 0,0.569687 -0.529353,1.475272 -1.050712,1.797489 -0.592066,0.365915 -1.537764,0.397773 -2.158464,0.07272 -1.031064,-0.539972 -1.451459,-2.026135 -0.831849,-2.94071 0.176809,-0.260979 0.548664,-0.622236 0.826346,-0.802798 l 0.504871,-0.328291 -0.644801,-0.219323 c -0.430786,-0.146529 -0.779499,-0.183809 -1.050627,-0.112325 -0.223204,0.05886 -0.682915,0.107017 -1.021584,0.107017 h -0.61576 l -2.381982,3.626584 c -1.310091,1.994623 -2.488701,3.834134 -2.619135,4.087801 -0.17773,0.345645 -0.224091,0.692389 -0.185023,1.383782 0.06333,1.120862 0.537413,1.900929 1.473465,2.424502 0.82256,0.46009 2.104637,0.467442 2.962683,0.01698 0.663685,-0.34842 1.151794,-0.321202 1.753879,0.09779 0.93848,0.653107 2.1542,0.736705 3.25581,0.223878 0.923537,-0.429929 1.435422,-0.427999 2.006479,0.0075 0.800072,0.610245 1.540924,0.869029 2.487869,0.869029 0.581383,0 1.07757,-0.08913 1.458274,-0.261927 z m 2.452719,-3.937319 C 30.48198,41.04393 30.148975,40.38878 30.219563,39.412913 c 0.0501,-0.692589 0.123218,-0.874237 0.514371,-1.277805 0.558731,-0.576463 1.185937,-0.799391 1.906557,-0.677642 1.003776,0.169588 1.754935,1.071348 1.754935,2.106787 0,1.642425 -1.685488,2.656744 -3.138817,1.888926 z M 28.09127,30.815147 c 0.223696,-0.05003 0.596658,-0.235457 0.828803,-0.412085 0.64861,-0.493499 1.051272,-0.54146 1.809047,-0.215473 0.888309,0.38214 1.557799,0.36369 2.363335,-0.06513 0.704648,-0.375111 0.946674,-0.374798 1.956544,0.0025 0.474179,0.177177 0.691363,0.190449 1.139903,0.06966 1.103612,-0.297171 1.810261,-1.525571 1.415655,-2.460899 -0.103385,-0.245066 -1.213813,-2.001275 -2.467607,-3.90269 -1.253794,-1.901414 -2.696765,-4.095426 -3.2066,-4.875577 -0.926694,-1.418036 -0.926949,-1.41828 -0.849108,-0.813439 0.112618,0.875052 -0.346937,1.722955 -1.154566,2.130218 -0.332702,0.167771 -0.762084,0.30504 -0.954181,0.30504 -0.49777,0 -1.494244,-0.542912 -1.822302,-0.992848 -0.391115,-0.536422 -0.390874,-1.82015 4.07e-4,-2.344271 0.706324,-0.946046 1.850898,-1.251694 2.810763,-0.750591 L 30.475759,16.75814 30.232511,16.374 c -0.805053,-1.27135 -1.102055,-1.562835 -1.985627,-1.948756 l -0.893365,-0.390201 -0.986874,0.434701 -0.986874,0.434701 -4.067198,6.181069 c -2.236958,3.39959 -4.150037,6.41919 -4.25128,6.710227 -0.400005,1.149828 0.60498,2.468042 1.867078,2.449001 0.352548,-0.0053 0.831913,-0.108391 1.065255,-0.229062 0.578687,-0.29925 0.884582,-0.276806 1.629118,0.119541 0.771597,0.410753 1.506665,0.431336 2.314419,0.0648 0.684097,-0.310417 0.926185,-0.328109 1.323224,-0.09671 0.945439,0.551032 1.245689,0.697341 1.610689,0.784881 0.408571,0.098 0.472129,0.09419 1.22016,-0.07309 z m -4.127048,-3.892102 c -0.805308,-0.418226 -1.12442,-0.889553 -1.194658,-1.764504 -0.04739,-0.590258 -8.13e-4,-0.800896 0.262751,-1.188662 0.543997,-0.800315 1.146826,-1.121283 1.980284,-1.054375 0.875143,0.07025 1.348794,0.390946 1.756832,1.189491 0.377858,0.739489 0.382687,1.106955 0.02427,1.847339 -0.528333,1.091391 -1.774141,1.51879 -2.829482,0.970711 z m 2.007166,-15.225773 c 0.593573,-0.260978 1.21418,-0.474507 1.379128,-0.474507 0.16495,0 0.785048,0.219047 1.377995,0.486771 0.592948,0.267722 1.095352,0.465999 1.116454,0.440613 0.0211,-0.02538 -0.02009,-0.55177 -0.09152,-1.169738 C 29.681994,10.362441 29.6609,9.7079582 29.70658,9.5260029 29.75224,9.3440497 30.163364,8.7956337 30.620174,8.3073031 31.076977,7.8189714 31.426949,7.3973122 31.397884,7.3702822 31.368816,7.3432546 30.856974,7.2220059 30.260452,7.1008446 29.66393,6.9796882 29.023347,6.7693749 28.836933,6.6334924 28.650521,6.4976088 28.253968,5.9505659 27.955708,5.4178423 27.657446,4.8851186 27.379795,4.4480943 27.338709,4.4466779 c -0.04109,-0.00146 -0.336236,0.4570903 -0.655885,1.018903 -0.319648,0.5618126 -0.713084,1.1052683 -0.874306,1.2076779 -0.16122,0.1024135 -0.781192,0.2913208 -1.377715,0.4198006 -0.596522,0.12848 -1.107066,0.2531726 -1.134542,0.277094 -0.02748,0.023918 0.335739,0.4774685 0.807142,1.0078818 0.947116,1.0656741 0.964826,1.1324026 0.764016,2.8786228 -0.05789,0.503317 -0.07598,0.915121 -0.04024,0.915121 0.03574,0 0.550647,-0.213528 1.144218,-0.474507 z"
       id="path472" />
  </g>
  <g
     inkscape:label="Edge.Cuts"
     inkscape:groupmode="layer"
     id="g19">
    <path
       style="opacity:0.431484;fill:none;stroke:#000000;stroke-width:0.135573;stroke-opacity:1"
       d="M 22.2569 69.5258 L 22.0477 69.428 L 21.9614 69.3711 L 21.8862 69.3035 L 21.8211 69.221 L 21.7653 69.1196 L 21.7178 68.995 L 21.6777 68.8433 L 21.6162 68.442 L 21.5735 67.8827 L 21.516 66.159 L 21.4482 63.3819 L 20.0925 63.4023 L 19.5835 63.4009 L 19.1162 63.3802 L 18.6847 63.339 L 18.2832 63.2761 L 17.906 63.1906 L 17.547 63.0812 L 17.2006 62.9469 L 16.861 62.7865 L 16.5488 62.637 L 16.4275 62.5997 L 16.3095 62.5873 L 16.1799 62.6 L 16.0239 62.6376 L 15.573 62.788 L 15.1389 62.9092 L 14.6376 62.9973 L 14.0917 63.0523 L 13.5237 63.074 L 12.9564 63.0621 L 12.4122 63.0165 L 11.9137 62.937 L 11.4836 62.8233 L 11.1128 62.6878 L 10.7545 62.5357 L 10.409 62.3675 L 10.0765 62.1839 L 9.75729 61.9856 L 9.45175 61.7732 L 9.16015 61.5474 L 8.88277 61.3088 L 8.61991 61.0581 L 8.37186 60.796 L 8.13893 60.5231 L 7.92141 60.24 L 7.71959 59.9475 L 7.53376 59.6461 L 7.36423 59.3365 L 7.21129 59.0195 L 7.07524 58.6955 L 6.95636 58.3654 L 6.85496 58.0297 L 6.77134 57.6891 L 6.70578 57.3443 L 6.65858 56.9959 L 6.63004 56.6445 L 6.62046 56.2909 L 6.63013 55.9357 L 6.65934 55.5795 L 6.70839 55.223 L 6.77758 54.8668 L 6.8672 54.5117 L 6.97754 54.1582 L 7.10891 53.807 L 7.2616 53.4588 L 7.58992 52.8706 L 8.19847 51.8742 L 9.00039 50.6088 L 9.90882 49.2137 L 12.17 45.787 L 11.8322 45.3441 L 11.6711 45.1084 L 11.4825 44.7941 L 11.2896 44.4421 L 11.1161 44.0935 L 10.9127 43.6158 L 10.8461 43.4007 L 10.7987 43.1758 L 10.7674 42.922 L 10.7489 42.62 L 10.7379 41.7945 L 10.7494 41.0191 L 10.7921 40.4719 L 10.829 40.2551 L 10.8785 40.0607 L 10.9419 39.8772 L 11.0209 39.6931 L 11.3156 39.1754 L 11.9087 38.2166 L 12.7141 36.9537 L 13.6457 35.5234 L 15.9875 31.9638 L 15.5038 31.4284 L 15.2635 31.1409 L 15.0491 30.8398 L 14.8607 30.5267 L 14.6985 30.2032 L 14.5627 29.8707 L 14.4535 29.5309 L 14.371 29.1852 L 14.3156 28.8353 L 14.2873 28.4827 L 14.2863 28.1289 L 14.3128 27.7755 L 14.367 27.4239 L 14.4491 27.0759 L 14.5593 26.7329 L 14.6978 26.3964 L 14.8646 26.068 L 15.2759 25.4049 L 16.1154 24.1007 L 18.5902 20.3226 L 20.3039 17.7094 L 21.31 16.1157 L 21.5991 15.6158 L 21.773 15.2682 L 21.8521 15.0389 L 21.8626 14.9579 L 21.8572 14.8936 L 21.8427 14.6147 L 21.8619 14.1224 L 21.9106 13.4863 L 21.9846 12.7758 L 22.0861 11.9284 L 22.1507 11.2954 L 22.1643 11.0416 L 22.1626 10.8203 L 22.1438 10.6244 L 22.1057 10.4468 L 22.0465 10.2804 L 21.9642 10.1183 L 21.8567 9.95338 L 21.722 9.77856 L 21.3633 9.37106 L 20.872 8.83941 L 19.8901 7.73762 L 19.5537 7.33567 L 19.3855 7.10873 L 19.299 6.92536 L 19.2446 6.74034 L 19.2222 6.55493 L 19.2317 6.3704 L 19.2727 6.18801 L 19.3453 6.00902 L 19.4491 5.83468 L 19.5841 5.66627 L 19.7093 5.53988 L 19.8459 5.43364 L 20.0146 5.34051 L 20.2363 5.2534 L 20.5319 5.16526 L 20.9223 5.06902 L 22.0706 4.82398 L 24.1843 4.39065 L 25.2565 2.5058 L 25.6322 1.85766 L 25.9496 1.34258 L 26.2223 0.946179 L 26.4637 0.65409 L 26.6876 0.451934 L 26.7971 0.380088 L 26.9073 0.325335 L 27.1364 0.259918 L 27.3884 0.241307 L 27.5956 0.266354 L 27.7995 0.348149 L 28.0087 0.496676 L 28.232 0.721916 L 28.4781 1.03385 L 28.7558 1.44247 L 29.0738 1.95775 L 29.4407 2.58967 L 30.4605 4.38341 L 32.3941 4.77402 L 33.1751 4.94075 L 33.8723 5.106 L 34.4097 5.25066 L 34.7112 5.35565 L 34.8766 5.46405 L 35.028 5.61268 L 35.161 5.7922 L 35.2713 5.99326 L 35.3545 6.20652 L 35.4062 6.42265 L 35.4221 6.6323 L 35.3977 6.82612 L 35.3506 6.928 L 35.2493 7.08556 L 34.9094 7.53607 L 34.4285 8.1143 L 33.8573 8.7569 L 32.4037 10.3415 L 32.6395 12.438 L 32.7276 13.3159 L 32.7789 14.0388 L 32.791 14.5603 L 32.7816 14.7311 L 32.7615 14.834 L 32.7517 14.8901 L 32.7603 14.9667 L 32.8431 15.1998 L 33.0321 15.5699 L 33.3493 16.1132 L 34.4563 17.8654 L 36.3403 20.7476 L 37.7877 22.9728 L 38.9989 24.8815 L 39.847 26.2705 L 40.0953 26.7066 L 40.2053 26.9367 L 40.2782 27.2155 L 40.3321 27.5006 L 40.3673 27.7904 L 40.3843 28.0837 L 40.3832 28.3788 L 40.3644 28.6743 L 40.3282 28.9687 L 40.275 29.2606 L 40.2049 29.5485 L 40.1184 29.8309 L 40.0158 30.1064 L 39.8974 30.3735 L 39.7634 30.6307 L 39.6142 30.8766 L 39.4502 31.1096 L 39.2715 31.3283 L 38.8917 31.7804 L 38.7762 31.9339 L 38.7338 32.0093 L 38.9201 32.3204 L 39.4273 33.1158 L 41.0948 35.6781 L 42.0338 37.1351 L 42.8453 38.4417 L 43.4424 39.4551 L 43.6335 39.8072 L 43.7385 40.0324 L 43.8524 40.4008 L 43.9371 40.8112 L 43.9923 41.2511 L 44.0178 41.7079 L 44.0133 42.1688 L 43.9784 42.6214 L 43.913 43.053 L 43.8166 43.4509 L 43.6945 43.7823 L 43.5132 44.1754 L 43.2972 44.5811 L 43.0709 44.95 L 42.6888 45.5444 L 42.5298 45.8357 L 42.7188 46.1519 L 43.2334 46.957 L 44.925 49.5469 L 45.8743 51.0023 L 46.6886 52.2775 L 47.2811 53.2349 L 47.5653 53.737 L 47.6852 54.0303 L 47.7879 54.3285 L 47.8737 54.6309 L 47.9428 54.937 L 47.9955 55.2461 L 48.032 55.5575 L 48.0525 55.8707 L 48.0575 56.185 L 48.047 56.4998 L 48.0213 56.8143 L 47.9255 57.4404 L 47.7721 58.0581 L 47.563 58.6624 L 47.3004 59.2482 L 46.9861 59.8105 L 46.6223 60.344 L 46.211 60.8438 L 45.9881 61.0795 L 45.7541 61.3048 L 45.5092 61.5191 L 45.2537 61.7218 L 44.9878 61.9122 L 44.7118 62.0898 L 44.4259 62.2538 L 44.1303 62.4037 L 43.5905 62.6378 L 43.0567 62.8239 L 42.5274 62.9624 L 42.0006 63.0533 L 41.4749 63.097 L 40.9483 63.0937 L 40.4193 63.0435 L 39.8862 62.9468 L 39.026 62.7714 L 38.708 62.7306 L 38.4338 62.7218 L 38.1801 62.7459 L 37.9238 62.8034 L 37.6416 62.8951 L 37.3103 63.0216 L 36.8296 63.1888 L 36.5964 63.2455 L 36.3459 63.2871 L 35.7258 63.3341 L 34.8362 63.3473 L 33.1755 63.3508 L 33.1754 65.9542 L 33.1652 67.1129 L 33.1347 67.9936 L 33.084 68.5943 L 33.0512 68.7891 L 33.0133 68.9131 L 32.8874 69.1518 L 32.811 69.2491 L 32.7154 69.3329 L 32.5932 69.4043 L 32.4367 69.4641 L 32.2383 69.5135 L 31.9906 69.5534 L 31.3163 69.6084 L 30.3533 69.637 L 27.3185 69.6464 L 25.4385 69.6342 L 23.8575 69.6075 L 22.7417 69.5701 L 22.41 69.5486 L 22.2569 69.526 L 22.2569 69.5258 M 25.9714 11.6973 L 26.4141 11.513 L 26.8217 11.3622 L 27.1489 11.2602 L 27.3505 11.2228 L 27.552 11.2612 L 27.879 11.3658 L 28.2862 11.5205 L 28.7285 11.7095 L 29.5012 12.0398 L 29.745 12.1297 L 29.845 12.1501 L 29.8496 12.0436 L 29.8339 11.7875 L 29.7534 10.9804 L 29.7096 10.518 L 29.6861 10.0897 L 29.6846 9.74311 L 29.7066 9.526 L 29.8043 9.32749 L 30.0092 9.03154 L 30.2911 8.67815 L 30.6202 8.3073 L 31.1912 7.6658 L 31.3529 7.45942 L 31.3979 7.37028 L 31.042 7.27086 L 30.2604 7.10084 L 29.8126 6.99582 L 29.3949 6.87269 L 29.0541 6.7468 L 28.8369 6.63349 L 28.6625 6.46114 L 28.4383 6.17448 L 28.193 5.81342 L 27.9557 5.41784 L 27.5508 4.73302 L 27.4105 4.52411 L 27.3387 4.44668 L 27.2638 4.52626 L 27.1152 4.7449 L 26.6828 5.46558 L 26.434 5.87689 L 26.1863 6.2417 L 25.9682 6.52036 L 25.8085 6.67326 L 25.6091 6.76399 L 25.2829 6.87338 L 24.8751 6.98766 L 24.4308 7.09306 L 23.6501 7.27082 L 23.2963 7.37015 L 23.3445 7.46314 L 23.5127 7.68416 L 24.1034 8.37804 L 24.4164 8.73607 L 24.6506 9.03184 L 24.8143 9.29673 L 24.8723 9.42741 L 24.9159 9.56214 L 24.9636 9.85945 L 24.9659 10.22 L 24.9311 10.6753 L 24.8674 11.2567 L 24.8122 11.903 L 24.8102 12.0996 L 24.8272 12.1718 L 25.1901 12.0324 L 25.9714 11.6973 L 25.9714 11.6973"
       id="path472-3"
       sodipodi:nodetypes="cccsscsssccsssscssscssssscssscsssscsssssssssssscsssccssccccsssccssssscssscscscc" />
  </g>
</svg>
